<svg width="16" height="17" viewBox="0 0 16 17" fill="none" xmlns="http://www.w3.org/2000/svg">
<path d="M14.7465 14.8836L15.3426 14.1977C15.722 13.8177 15.9351 13.3031 15.9351 12.7666C15.9351 12.2301 15.722 11.7155 15.3426 11.3355C15.3223 11.3152 13.7462 10.1048 13.7462 10.1048C13.3679 9.74538 12.8654 9.54524 12.3432 9.54597C11.8209 9.5467 11.319 9.74825 10.9418 10.1087L9.69321 11.1589C8.67403 10.7379 7.74822 10.12 6.96894 9.34074C6.18966 8.5615 5.57227 7.63626 5.15223 6.61816L6.20035 5.37573C6.56176 4.99919 6.76391 4.4981 6.76476 3.97662C6.76562 3.45515 6.56511 2.9534 6.20494 2.57568C6.20494 2.57568 4.99108 1.00433 4.97077 0.984062C4.59702 0.608553 4.09027 0.394903 3.56002 0.389274C3.02977 0.383646 2.51858 0.586491 2.13692 0.953983L1.38358 1.60789C-3.067 6.76202 6.51675 16.2549 11.8504 16.0842C12.389 16.0873 12.9227 15.9827 13.4201 15.7765C13.9175 15.5703 14.3685 15.2667 14.7465 14.8836Z" fill="#40E062"/>
</svg>
