<svg width="317" height="322" viewBox="0 0 317 322" fill="none" xmlns="http://www.w3.org/2000/svg">
<g filter="url(#filter0_d_2020_72)">
<ellipse cx="158.486" cy="232.461" rx="124.923" ry="78.2608" fill="url(#paint0_linear_2020_72)" fill-opacity="0.5" shape-rendering="crispEdges"/>
<path d="M282.938 232.461C282.938 253.851 269.097 273.288 246.57 287.4C224.049 301.509 192.908 310.251 158.486 310.251C124.064 310.251 92.9225 301.509 70.4019 287.4C47.8748 273.288 34.0336 253.851 34.0336 232.461C34.0336 211.07 47.8748 191.633 70.4019 177.521C92.9225 163.412 124.064 154.67 158.486 154.67C192.908 154.67 224.049 163.412 246.57 177.521C269.097 191.633 282.938 211.07 282.938 232.461Z" stroke="url(#paint1_linear_2020_72)" stroke-opacity="0.6" stroke-width="0.941174" shape-rendering="crispEdges"/>
</g>
<circle cx="158.485" cy="159.485" r="158.485" fill="url(#paint2_radial_2020_72)"/>
<ellipse cx="158.484" cy="185.689" rx="154.945" ry="90.646" fill="url(#paint3_linear_2020_72)" fill-opacity="0.5"/>
<path d="M312.958 185.689C312.958 210.484 295.776 233.018 267.809 249.379C239.853 265.734 201.202 275.865 158.484 275.865C115.765 275.865 77.1142 265.734 49.1586 249.379C21.1917 233.018 4.00916 210.484 4.00916 185.689C4.00916 160.894 21.1917 138.36 49.1586 121.999C77.1142 105.644 115.765 95.5138 158.484 95.5138C201.202 95.5138 239.853 105.644 267.809 121.999C295.776 138.36 312.958 160.894 312.958 185.689Z" stroke="url(#paint4_linear_2020_72)" stroke-opacity="0.6" stroke-width="0.941174"/>
<path d="M239.762 88.5896L191.66 116.867L207.4 88.5896H190.806L146.215 114.802L134.19 121.816L95.2094 144.78L116.271 106.856H136.384L165.525 88.5896H105.6L54.6294 180.366H70.8369L115.936 153.799L127.957 146.752L166.961 123.823L153.876 147.334H175.936L178.438 145.857L215.916 123.823L194.815 161.735L130.81 161.883L99.6207 180.42L117.587 180.257L196.731 180.067L205.482 179.987L256.355 88.5896H239.762Z" fill="white"/>
<circle cx="158.484" cy="159.485" r="117.393" fill="url(#paint5_radial_2020_72)"/>
<circle cx="158.484" cy="159.485" r="117.393" fill="url(#paint6_radial_2020_72)"/>
<g filter="url(#filter1_d_2020_72)">
<ellipse cx="158.484" cy="129.413" rx="153.369" ry="88.5497" fill="url(#paint7_linear_2020_72)" fill-opacity="0.5" shape-rendering="crispEdges"/>
<path d="M311.383 129.413C311.383 153.626 294.381 175.636 266.698 191.62C239.027 207.596 200.769 217.492 158.484 217.492C116.2 217.492 77.9422 207.596 50.2713 191.62C22.5881 175.636 5.58582 153.626 5.58582 129.413C5.58582 105.2 22.5881 83.1897 50.2713 67.2064C77.9422 51.2303 116.2 41.3339 158.484 41.3339C200.769 41.3339 239.027 51.2303 266.698 67.2064C294.381 83.1897 311.383 105.2 311.383 129.413Z" stroke="url(#paint8_linear_2020_72)" stroke-opacity="0.6" stroke-width="0.941174" shape-rendering="crispEdges"/>
</g>
<g filter="url(#filter2_d_2020_72)">
<ellipse cx="158.484" cy="83.6869" rx="119.01" ry="76.925" fill="url(#paint9_linear_2020_72)" fill-opacity="0.5" shape-rendering="crispEdges"/>
<path d="M277.023 83.6869C277.023 104.716 263.836 123.818 242.381 137.686C220.931 151.55 191.27 160.141 158.484 160.141C125.697 160.141 96.0362 151.55 74.5863 137.686C53.1318 123.818 39.9442 104.716 39.9442 83.6869C39.9442 62.6579 53.1318 43.5557 74.5863 29.688C96.0362 15.8234 125.697 7.23255 158.484 7.23255C191.27 7.23255 220.931 15.8234 242.381 29.688C263.836 43.5557 277.023 62.6579 277.023 83.6869Z" stroke="url(#paint10_linear_2020_72)" stroke-opacity="0.6" stroke-width="0.941174" shape-rendering="crispEdges"/>
</g>
<ellipse cx="158.486" cy="56.9685" rx="74.0748" ry="50.2065" fill="url(#paint11_linear_2020_72)" fill-opacity="0.5"/>
<path d="M232.09 56.9685C232.09 70.63 223.921 83.0524 210.601 92.0803C197.284 101.106 178.86 106.704 158.486 106.704C138.112 106.704 119.688 101.106 106.371 92.0803C93.0514 83.0524 84.8817 70.63 84.8817 56.9685C84.8817 43.307 93.0514 30.8846 106.371 21.8567C119.688 12.8305 138.112 7.23255 158.486 7.23255C178.86 7.23255 197.284 12.8305 210.601 21.8567C223.921 30.8846 232.09 43.307 232.09 56.9685Z" stroke="url(#paint12_linear_2020_72)" stroke-opacity="0.6" stroke-width="0.941174"/>
<ellipse cx="158.485" cy="39.8294" rx="42.8858" ry="29.5081" fill="url(#paint13_linear_2020_72)" fill-opacity="0.5"/>
<path d="M200.9 39.8294C200.9 47.7785 196.218 55.0264 188.543 60.3071C180.87 65.5865 170.244 68.867 158.485 68.867C146.725 68.867 136.1 65.5865 128.427 60.3071C120.752 55.0264 116.07 47.7785 116.07 39.8294C116.07 31.8804 120.752 24.6325 128.427 19.3517C136.1 14.0723 146.725 10.7919 158.485 10.7919C170.244 10.7919 180.87 14.0723 188.543 19.3517C196.218 24.6325 200.9 31.8804 200.9 39.8294Z" stroke="url(#paint14_linear_2020_72)" stroke-opacity="0.6" stroke-width="0.941174"/>
<circle cx="158.485" cy="159.485" r="158.485" fill="url(#paint15_radial_2020_72)" fill-opacity="0.3"/>
<defs>
<filter id="filter0_d_2020_72" x="24.1513" y="145.729" width="268.669" height="175.345" filterUnits="userSpaceOnUse" color-interpolation-filters="sRGB">
<feFlood flood-opacity="0" result="BackgroundImageFix"/>
<feColorMatrix in="SourceAlpha" type="matrix" values="0 0 0 0 0 0 0 0 0 0 0 0 0 0 0 0 0 0 127 0" result="hardAlpha"/>
<feOffset dy="0.941174"/>
<feGaussianBlur stdDeviation="4.70587"/>
<feComposite in2="hardAlpha" operator="out"/>
<feColorMatrix type="matrix" values="0 0 0 0 0.440043 0 0 0 0 0.20092 0 0 0 0 0.679167 0 0 0 0.3 0"/>
<feBlend mode="normal" in2="BackgroundImageFix" result="effect1_dropShadow_2020_72"/>
<feBlend mode="normal" in="SourceGraphic" in2="effect1_dropShadow_2020_72" result="shape"/>
</filter>
<filter id="filter1_d_2020_72" x="0.409366" y="37.0986" width="316.15" height="186.511" filterUnits="userSpaceOnUse" color-interpolation-filters="sRGB">
<feFlood flood-opacity="0" result="BackgroundImageFix"/>
<feColorMatrix in="SourceAlpha" type="matrix" values="0 0 0 0 0 0 0 0 0 0 0 0 0 0 0 0 0 0 127 0" result="hardAlpha"/>
<feOffset dy="0.941174"/>
<feGaussianBlur stdDeviation="2.35293"/>
<feComposite in2="hardAlpha" operator="out"/>
<feColorMatrix type="matrix" values="0 0 0 0 0.369333 0 0 0 0 0.0916667 0 0 0 0 0.5 0 0 0 0.15 0"/>
<feBlend mode="normal" in2="BackgroundImageFix" result="effect1_dropShadow_2020_72"/>
<feBlend mode="normal" in="SourceGraphic" in2="effect1_dropShadow_2020_72" result="shape"/>
</filter>
<filter id="filter2_d_2020_72" x="33.356" y="0.644333" width="252.138" height="167.967" filterUnits="userSpaceOnUse" color-interpolation-filters="sRGB">
<feFlood flood-opacity="0" result="BackgroundImageFix"/>
<feColorMatrix in="SourceAlpha" type="matrix" values="0 0 0 0 0 0 0 0 0 0 0 0 0 0 0 0 0 0 127 0" result="hardAlpha"/>
<feOffset dx="0.941174" dy="0.941174"/>
<feGaussianBlur stdDeviation="3.5294"/>
<feComposite in2="hardAlpha" operator="out"/>
<feColorMatrix type="matrix" values="0 0 0 0 0.440043 0 0 0 0 0.20092 0 0 0 0 0.679167 0 0 0 0.2 0"/>
<feBlend mode="normal" in2="BackgroundImageFix" result="effect1_dropShadow_2020_72"/>
<feBlend mode="normal" in="SourceGraphic" in2="effect1_dropShadow_2020_72" result="shape"/>
</filter>
<linearGradient id="paint0_linear_2020_72" x1="158.486" y1="154.2" x2="158.486" y2="310.721" gradientUnits="userSpaceOnUse">
<stop stop-color="#038C3E"/>
<stop offset="1" stop-color="#038C3E" stop-opacity="0"/>
</linearGradient>
<linearGradient id="paint1_linear_2020_72" x1="220.53" y1="242.327" x2="227.601" y2="321.28" gradientUnits="userSpaceOnUse">
<stop stop-color="white" stop-opacity="0"/>
<stop offset="1" stop-color="white"/>
</linearGradient>
<radialGradient id="paint2_radial_2020_72" cx="0" cy="0" r="1" gradientUnits="userSpaceOnUse" gradientTransform="translate(1.20421e-05 217.138) rotate(-19.6638) scale(336.598)">
<stop offset="0.249306" stop-color="white" stop-opacity="0.7"/>
<stop offset="0.48315" stop-color="#40E062" stop-opacity="0.5"/>
<stop offset="0.627037" stop-color="#038C3E" stop-opacity="0.5"/>
</radialGradient>
<linearGradient id="paint3_linear_2020_72" x1="16.183" y1="204.954" x2="309.861" y2="171.806" gradientUnits="userSpaceOnUse">
<stop stop-color="white" stop-opacity="0.64"/>
<stop offset="1" stop-color="#02735E"/>
</linearGradient>
<linearGradient id="paint4_linear_2020_72" x1="183.085" y1="314.752" x2="136.204" y2="202.904" gradientUnits="userSpaceOnUse">
<stop offset="0.0011346" stop-color="white"/>
<stop offset="1" stop-color="white" stop-opacity="0"/>
</linearGradient>
<radialGradient id="paint5_radial_2020_72" cx="0" cy="0" r="1" gradientUnits="userSpaceOnUse" gradientTransform="translate(69.6938 219.097) rotate(-14.8494) scale(232.605)">
<stop offset="0.239373" stop-color="#F2F2F2" stop-opacity="0.87"/>
<stop offset="0.410099" stop-color="#40E062"/>
<stop offset="0.67492" stop-color="#038C3E" stop-opacity="0.53"/>
<stop offset="0.861176" stop-color="#02735E" stop-opacity="0.43"/>
<stop offset="1" stop-color="white"/>
</radialGradient>
<radialGradient id="paint6_radial_2020_72" cx="0" cy="0" r="1" gradientUnits="userSpaceOnUse" gradientTransform="translate(269.7 250.224) rotate(-121.724) scale(133.749)">
<stop stop-color="#40E062"/>
<stop offset="1" stop-color="#40E062" stop-opacity="0"/>
</radialGradient>
<linearGradient id="paint7_linear_2020_72" x1="8.41788" y1="123.31" x2="311.853" y2="132.737" gradientUnits="userSpaceOnUse">
<stop stop-color="white"/>
<stop offset="1" stop-color="#034159" stop-opacity="0.52"/>
</linearGradient>
<linearGradient id="paint8_linear_2020_72" x1="138.288" y1="280.482" x2="128.753" y2="136.04" gradientUnits="userSpaceOnUse">
<stop stop-color="white"/>
<stop offset="1" stop-color="white" stop-opacity="0"/>
</linearGradient>
<linearGradient id="paint9_linear_2020_72" x1="158.484" y1="6.76196" x2="158.484" y2="160.612" gradientUnits="userSpaceOnUse">
<stop stop-color="#025951" stop-opacity="0.38"/>
<stop offset="1" stop-color="#8E92EE" stop-opacity="0"/>
</linearGradient>
<linearGradient id="paint10_linear_2020_72" x1="179.285" y1="194.013" x2="195.07" y2="23.8881" gradientUnits="userSpaceOnUse">
<stop stop-color="white"/>
<stop offset="1" stop-color="white" stop-opacity="0"/>
</linearGradient>
<linearGradient id="paint11_linear_2020_72" x1="158.486" y1="6.76196" x2="158.486" y2="107.175" gradientUnits="userSpaceOnUse">
<stop stop-color="#40E062"/>
<stop offset="1" stop-color="#8E92EE" stop-opacity="0"/>
</linearGradient>
<linearGradient id="paint12_linear_2020_72" x1="188.124" y1="181.051" x2="158.486" y2="6.76195" gradientUnits="userSpaceOnUse">
<stop stop-color="white"/>
<stop offset="1" stop-color="white" stop-opacity="0"/>
</linearGradient>
<linearGradient id="paint13_linear_2020_72" x1="158.485" y1="10.3213" x2="158.485" y2="69.3375" gradientUnits="userSpaceOnUse">
<stop stop-color="#40E062"/>
<stop offset="1" stop-color="#038C3E" stop-opacity="0"/>
</linearGradient>
<linearGradient id="paint14_linear_2020_72" x1="181.642" y1="131.559" x2="158.485" y2="10.3213" gradientUnits="userSpaceOnUse">
<stop stop-color="white"/>
<stop offset="1" stop-color="white" stop-opacity="0"/>
</linearGradient>
<radialGradient id="paint15_radial_2020_72" cx="0" cy="0" r="1" gradientUnits="userSpaceOnUse" gradientTransform="translate(1.20421e-05 217.137) rotate(-19.6638) scale(336.598)">
<stop offset="0.249306" stop-color="white" stop-opacity="0.68"/>
<stop offset="0.48315" stop-color="#40E062" stop-opacity="0.32"/>
<stop offset="0.627037" stop-color="#034159" stop-opacity="0.63"/>
</radialGradient>
</defs>
</svg>
