<svg width="248" height="74" viewBox="0 0 248 74" fill="none" xmlns="http://www.w3.org/2000/svg">
<rect width="248" height="74" fill="url(#paint0_radial_2016_108)"/>
<rect y="55" width="248" height="1" fill="url(#paint1_linear_2016_108)" fill-opacity="0.6" style="mix-blend-mode:overlay"/>
<rect width="248" height="1" fill="url(#paint2_linear_2016_108)" style="mix-blend-mode:overlay"/>
<path d="M97.672 29.085C104.85 29.085 108.451 31.7108 108.916 36.7128H104.206C103.768 33.9148 101.532 32.8257 97.672 32.8257C92.9625 32.8257 90.9811 34.4356 90.9811 37.974C90.9811 41.5124 92.9893 43.174 97.672 43.174C101.505 43.174 103.768 42.0591 104.206 39.2353H108.916C108.451 44.2631 104.85 46.9105 97.672 46.9105C89.7467 46.9105 86.3521 43.7422 86.3521 37.974C86.3521 32.2058 89.7467 29.085 97.672 29.085Z" fill="white"/>
<path d="M138.162 46.6652H133.533V34.7801L126.046 46.6652H122.7L115.213 34.7801V46.6652H110.584V29.3347H116.837L124.373 41.5685L131.909 29.3347H138.162V46.6652Z" fill="white"/>
<path d="M144.848 32.8731V36.39H159.254V39.6099H144.848V43.1268H159.254V46.6695H140.215V29.3347H159.254V32.8774H144.848V32.8731Z" fill="white"/>
<path d="M182.74 37.9999C182.74 43.893 178.647 46.6652 173.991 46.6652H160.923V29.3347H173.991C178.647 29.3347 182.74 32.1069 182.74 37.9999ZM178.111 37.9999C178.111 33.79 175.745 33.0711 172.247 33.0711H165.556V42.9245H172.247C175.745 42.9245 178.111 42.2056 178.111 37.9956V37.9999Z" fill="white"/>
<path d="M189.041 46.6652H184.412V29.3347H189.041V46.6652Z" fill="white"/>
<path d="M207.947 42.9761H197.168L195.24 46.6652H190.146L199.431 29.3347H205.684L214.996 46.6652H209.875L207.947 42.9761ZM206.225 39.6572L202.571 32.6235L198.89 39.6572H206.221H206.225Z" fill="white"/>
<path d="M81.0077 25L66.7135 33.0066L71.3918 25H66.463L53.2109 32.4212L49.6418 34.4056L38.058 40.9099L44.315 30.1699H50.2904L58.9492 25H41.144L26 50.9828H30.8169L44.2166 43.4626L47.7857 41.4652L59.3785 34.9738L55.4874 41.6331H62.0442L62.7866 41.2113L73.9232 34.9738L67.6527 45.7096L48.6355 45.7526L39.3684 51L44.7042 50.9526L68.2208 50.901L70.8238 50.8752L85.9365 25H81.0077Z" fill="#40E062"/>
<defs>
<radialGradient id="paint0_radial_2016_108" cx="0" cy="0" r="1" gradientUnits="userSpaceOnUse" gradientTransform="translate(124 -27.0893) rotate(90) scale(95.1429 124)">
<stop stop-color="#40E062"/>
<stop offset="1" stop-color="#40E062" stop-opacity="0"/>
</radialGradient>
<linearGradient id="paint1_linear_2016_108" x1="248" y1="54.9996" x2="7.99999" y2="55" gradientUnits="userSpaceOnUse">
<stop stop-color="white" stop-opacity="0"/>
<stop offset="0.520833" stop-color="white" stop-opacity="0.499167"/>
<stop offset="1" stop-color="white" stop-opacity="0"/>
</linearGradient>
<linearGradient id="paint2_linear_2016_108" x1="248" y1="-0.000445312" x2="7.99999" y2="-1.42589e-05" gradientUnits="userSpaceOnUse">
<stop stop-color="white" stop-opacity="0"/>
<stop offset="0.520833" stop-color="white" stop-opacity="0.499167"/>
<stop offset="1" stop-color="white" stop-opacity="0"/>
</linearGradient>
</defs>
</svg>
